<?xml version="1.0"?><svg xmlns="http://www.w3.org/2000/svg" xmlns:xlink="http://www.w3.org/1999/xlink" version="1.1" viewBox="0 0 24 24" style="enable-background:new 0 0 24 24;" xml:space="preserve"><style type="text/css">
	.st0{opacity:0.2;fill:none;stroke:#000000;stroke-width:0.05;stroke-miterlimit:10;}
</style><g id="Grid_system"/><g id="Layer_2"><g><path d="M15,10c0.3789,0,0.7251-0.2139,0.8945-0.5527L17.6182,6H19c0.5522,0,1-0.4478,1-1s-0.4478-1-1-1h-2    c-0.3789,0-0.7251,0.2139-0.8945,0.5527L14.3818,8H13V5.5c0-0.0991-0.0212-0.1924-0.0293-0.2896    c-0.0006-0.0164,0.0068-0.0308,0.0054-0.0474c-0.0033-0.0383-0.0169-0.0742-0.0215-0.1122    C12.9347,4.898,12.9078,4.749,12.8688,4.603c-0.0247-0.0953-0.0544-0.1871-0.087-0.2795    c-0.0406-0.1128-0.0847-0.2224-0.1362-0.3294c-0.0524-0.1105-0.1102-0.2158-0.1738-0.3196    c-0.0517-0.0838-0.1058-0.1644-0.1642-0.2433c-0.0754-0.1023-0.1546-0.199-0.241-0.2919    c-0.0781-0.0848-0.1609-0.163-0.2469-0.2397c-0.0415-0.0361-0.0748-0.0807-0.1182-0.1147    c-0.0373-0.0304-0.0802-0.052-0.1187-0.0807c-0.0851-0.0636-0.1718-0.1229-0.2626-0.1787    c-0.0933-0.0573-0.1888-0.1077-0.2867-0.1558c-0.0918-0.0452-0.1826-0.0897-0.2787-0.1268    c-0.1151-0.0446-0.2332-0.0774-0.3522-0.1096c-0.0856-0.023-0.1685-0.0511-0.2566-0.0676C9.9335,2.0248,9.7179,2,9.5,2    C9.2786,2,9.0627,2.0249,8.8514,2.0646c-0.0665,0.0125-0.1291,0.0338-0.1942,0.05C8.5141,2.1503,8.3735,2.1904,8.2375,2.2432    c-0.069,0.0269-0.1346,0.0583-0.2014,0.0894C7.909,2.3914,7.7864,2.4561,7.6678,2.5294C7.6071,2.567,7.5479,2.6053,7.4897,2.6464    C7.3729,2.7288,7.2634,2.819,7.1575,2.9152C7.1077,2.9603,7.0571,3.0032,7.01,3.0511C6.907,3.1561,6.8141,3.27,6.7247,3.3879    C6.6858,3.439,6.6428,3.4861,6.6066,3.5392C6.5211,3.666,6.449,3.8022,6.3801,3.9409c-0.0718,0.1428-0.1291,0.2919-0.181,0.445    C6.17,4.4729,6.1329,4.5557,6.1104,4.646C6.1089,4.6519,6.1085,4.6573,6.1071,4.6631C6.0916,4.7258,6.0825,4.79,6.0704,4.854    c-0.0318,0.1636-0.052,0.325-0.0599,0.484C6.0093,5.3643,6.0016,5.3887,6.001,5.415C5.3311,5.7041,4.7344,6.1406,4.2471,6.7021    C3.4429,7.6226,3,8.7939,3,10c0,0.6855,0.1445,1.3677,0.4214,2c-0.0447,0.1021-0.0638,0.2119-0.1015,0.3163    c-0.012,0.0266-0.0338,0.0453-0.0435,0.0733c-0.0374,0.1068-0.0546,0.217-0.0844,0.3252    c-0.0334,0.1238-0.0723,0.2446-0.0961,0.3705C3.0372,13.3878,3,13.6929,3,14c0,0.2681,0.0296,0.5342,0.0729,0.7983    c0.0127,0.0776,0.0297,0.1534,0.0461,0.2302c0.0428,0.2012,0.098,0.3985,0.1653,0.5931c0.0221,0.0638,0.0403,0.1282,0.0649,0.1911    c0.0911,0.233,0.1947,0.4612,0.3202,0.679c0.0073,0.0129,0.0177,0.0222,0.0251,0.035c0.1591,0.2706,0.341,0.5293,0.5506,0.7692    c0.0007,0.0008,0.0016,0.0013,0.0023,0.0021c0.0006,0.0007,0.001,0.0016,0.0016,0.0023c0.2313,0.2631,0.4882,0.4977,0.764,0.7039    c0.0419,0.0314,0.0858,0.0583,0.1286,0.0884c0.2595,0.1816,0.5328,0.3412,0.8205,0.4702c0.0137,0.006,0.0251,0.0163,0.0388,0.0222    C6.0464,20.4761,7.5986,22,9.5,22c1.9297,0,3.5-1.5703,3.5-3.5V16h1.2192l0.8105,3.2427C15.1411,19.6875,15.541,20,16,20h3    c0.5522,0,1-0.4478,1-1s-0.4478-1-1-1h-2.2192l-0.8105-3.2427C15.8589,14.3125,15.459,14,15,14h-2v-1h5c0.5522,0,1-0.4478,1-1    s-0.4478-1-1-1h-5v-1H15z M11,8h-1C9.4478,8,9,8.4478,9,9s0.4478,1,1,1h1v1H9c-0.5522,0-1,0.4478-1,1s0.4478,1,1,1h2v1h-1    c-0.5522,0-1,0.4478-1,1s0.4478,1,1,1h1v2.5c0,0.8271-0.6729,1.5-1.5,1.5c-0.6531,0-1.2042-0.422-1.4097-1.0057    c0.4184-0.007,0.8074-0.0568,1.1802-0.1613c0.5317-0.1494,0.8418-0.7017,0.6924-1.2334s-0.7031-0.8428-1.2334-0.6924    C8.5078,16.9697,8.269,17,8,17c-0.4236,0-0.8372-0.0922-1.2175-0.2628c-0.0156-0.0068-0.0302-0.0156-0.0456-0.0227    c-0.1698-0.0797-0.3323-0.1757-0.4858-0.2866c-0.0173-0.0125-0.035-0.0242-0.052-0.0372    c-0.1617-0.1222-0.3138-0.2598-0.4512-0.4152c-0.0358-0.0411-0.0619-0.0881-0.0952-0.1308    c-0.0811-0.1016-0.1616-0.2029-0.2303-0.322c-0.0184-0.0311-0.0298-0.0652-0.0471-0.0969    c-0.0975-0.1797-0.1732-0.365-0.2319-0.5543C5.124,14.8085,5.1053,14.7452,5.09,14.6809C5.0372,14.4584,5,14.2325,5,14    c0-0.2215,0.0378-0.4362,0.0857-0.6486c0.0178-0.0754,0.0348-0.1508,0.0588-0.2255c0.0665-0.2141,0.1461-0.4254,0.2623-0.6269    c0.1777-0.3086,0.1777-0.6895,0-0.998C5.1367,11.0327,5,10.5278,5,10c0-0.7222,0.2676-1.4263,0.7549-1.9844    c0.2293-0.2638,0.5013-0.4751,0.7997-0.6394c0.2981,0.4686,0.702,0.8712,1.1973,1.157C7.9097,8.624,8.0815,8.667,8.251,8.667    c0.3457,0,0.6821-0.1792,0.8672-0.5C9.394,7.6885,9.23,7.0767,8.752,6.8008C8.3998,6.5977,8.1508,6.2609,8.0504,5.8769    C8.0494,5.8732,8.0507,5.8694,8.0498,5.8657C8.0156,5.731,8,5.6147,8,5.5c0-0.1138,0.0159-0.2294,0.0499-0.3642    c0.0006-0.0024,0.0016-0.0047,0.0023-0.0071c0.08-0.3162,0.2605-0.5826,0.4977-0.7796C8.5693,4.3329,8.588,4.316,8.6082,4.3009    c0.1127-0.0842,0.2371-0.1522,0.3702-0.202c0.0247-0.0093,0.0506-0.0157,0.076-0.0237C9.1965,4.0306,9.3447,4,9.5,4    c0.1605,0,0.3187,0.0311,0.4713,0.0832c0.0139,0.0046,0.0282,0.0081,0.0419,0.0131c0.1492,0.0559,0.2916,0.137,0.423,0.2413    c0.0161,0.013,0.0322,0.0258,0.0477,0.0394c0.043,0.0358,0.0816,0.0752,0.1194,0.1153c0.0394,0.0432,0.0773,0.0876,0.1115,0.1351    c0.0173,0.0237,0.0336,0.048,0.0493,0.0727c0.0341,0.0536,0.064,0.1099,0.0912,0.1678c0.0171,0.0376,0.0333,0.0756,0.0471,0.1149    c0.0145,0.0389,0.026,0.079,0.0372,0.1194c0.0192,0.0751,0.0363,0.1513,0.0435,0.2307C10.9894,5.3884,11,5.4427,11,5.5V8z"/></g></g></svg>